<?xml version="1.0" encoding="UTF-8" standalone="no"?>
<svg
   viewBox="0 0 1080 1349.28"
   height="1349.28"
   width="1080"
   xml:space="preserve"
   id="svg2"
   version="1.1"
   sodipodi:docname="middle-Trump-and-Venezuella.svg"
   inkscape:version="1.4.4 (dcaf3e7, 2026-05-05)"
   xmlns:inkscape="http://www.inkscape.org/namespaces/inkscape"
   xmlns:sodipodi="http://sodipodi.sourceforge.net/DTD/sodipodi-0.dtd"
   xmlns="http://www.w3.org/2000/svg"
   xmlns:svg="http://www.w3.org/2000/svg"
   xmlns:rdf="http://www.w3.org/1999/02/22-rdf-syntax-ns#"
   xmlns:cc="http://creativecommons.org/ns#"
   xmlns:dc="http://purl.org/dc/elements/1.1/"><sodipodi:namedview
     id="namedview1"
     pagecolor="#ffffff"
     bordercolor="#cccccc"
     borderopacity="1"
     inkscape:showpageshadow="0"
     inkscape:pageopacity="1"
     inkscape:pagecheckerboard="0"
     inkscape:deskcolor="#d1d1d1"
     inkscape:zoom="0.37514057"
     inkscape:cx="506.47681"
     inkscape:cy="839.68525"
     inkscape:window-width="1396"
     inkscape:window-height="841"
     inkscape:window-x="44"
     inkscape:window-y="31"
     inkscape:window-maximized="0"
     inkscape:current-layer="g10" /><metadata
     id="metadata8"><rdf:RDF><cc:Work
         rdf:about=""><dc:format>image/svg+xml</dc:format><dc:type
           rdf:resource="http://purl.org/dc/dcmitype/StillImage" /></cc:Work></rdf:RDF></metadata><defs
     id="defs6"><clipPath
       id="clipPath18"
       clipPathUnits="userSpaceOnUse"><path
         style="clip-rule:evenodd"
         id="path16"
         d="M 0,3.0518e-4 H 810 V 1011.9603 H 0 Z" /></clipPath><clipPath
       id="clipPath28"
       clipPathUnits="userSpaceOnUse"><path
         style="clip-rule:evenodd"
         id="path26"
         d="M 1.207e-5,0 H 810.00001 V 1011.96 H 1.207e-5 Z" /></clipPath><clipPath
       id="clipPath40"
       clipPathUnits="userSpaceOnUse"><path
         style="clip-rule:evenodd"
         id="path38"
         d="M 1.207e-5,0 H 810.00001 V 1011.96 H 1.207e-5 Z" /></clipPath><clipPath
       id="clipPath52"
       clipPathUnits="userSpaceOnUse"><path
         style="clip-rule:evenodd"
         id="path50"
         d="M 1.207e-5,0 H 810.00001 V 1011.96 H 1.207e-5 Z" /></clipPath><clipPath
       id="clipPath64"
       clipPathUnits="userSpaceOnUse"><path
         style="clip-rule:evenodd"
         id="path62"
         d="M 1.207e-5,0 H 810.00001 V 1011.96 H 1.207e-5 Z" /></clipPath><clipPath
       id="clipPath76"
       clipPathUnits="userSpaceOnUse"><path
         style="clip-rule:evenodd"
         id="path74"
         d="M 1.207e-5,0 H 810.00001 V 1011.96 H 1.207e-5 Z" /></clipPath><clipPath
       id="clipPath88"
       clipPathUnits="userSpaceOnUse"><path
         style="clip-rule:evenodd"
         id="path86"
         d="M 1.207e-5,0 H 810.00001 V 1011.96 H 1.207e-5 Z" /></clipPath><clipPath
       id="clipPath100"
       clipPathUnits="userSpaceOnUse"><path
         style="clip-rule:evenodd"
         id="path98"
         d="M 1.207e-5,0 H 810.00001 V 1011.96 H 1.207e-5 Z" /></clipPath><clipPath
       id="clipPath112"
       clipPathUnits="userSpaceOnUse"><path
         style="clip-rule:evenodd"
         id="path110"
         d="M 1.207e-5,0 H 810.00001 V 1011.96 H 1.207e-5 Z" /></clipPath><clipPath
       id="clipPath124"
       clipPathUnits="userSpaceOnUse"><path
         style="clip-rule:evenodd"
         id="path122"
         d="M 1.207e-5,0 H 810.00001 V 1011.96 H 1.207e-5 Z" /></clipPath><clipPath
       id="clipPath136"
       clipPathUnits="userSpaceOnUse"><path
         style="clip-rule:evenodd"
         id="path134"
         d="M 1.207e-5,0 H 810.00001 V 1011.96 H 1.207e-5 Z" /></clipPath><clipPath
       id="clipPath148"
       clipPathUnits="userSpaceOnUse"><path
         style="clip-rule:evenodd"
         id="path146"
         d="M 1.207e-5,0 H 810.00001 V 1011.96 H 1.207e-5 Z" /></clipPath><clipPath
       id="clipPath160"
       clipPathUnits="userSpaceOnUse"><path
         style="clip-rule:evenodd"
         id="path158"
         d="M 1.207e-5,0 H 810.00001 V 1011.96 H 1.207e-5 Z" /></clipPath><clipPath
       id="clipPath172"
       clipPathUnits="userSpaceOnUse"><path
         style="clip-rule:evenodd"
         id="path170"
         d="M 0,3.0518e-4 H 810 V 1011.9603 H 0 Z" /></clipPath><clipPath
       id="clipPath184"
       clipPathUnits="userSpaceOnUse"><path
         style="clip-rule:evenodd"
         id="path182"
         d="M 1.207e-5,0 H 810.00001 V 1011.96 H 1.207e-5 Z" /></clipPath><clipPath
       id="clipPath196"
       clipPathUnits="userSpaceOnUse"><path
         style="clip-rule:evenodd"
         id="path194"
         d="M 1.207e-5,0 H 810.00001 V 1011.96 H 1.207e-5 Z" /></clipPath><clipPath
       id="clipPath208"
       clipPathUnits="userSpaceOnUse"><path
         style="clip-rule:evenodd"
         id="path206"
         d="M 1.207e-5,0 H 810.00001 V 1011.96 H 1.207e-5 Z" /></clipPath><clipPath
       id="clipPath220"
       clipPathUnits="userSpaceOnUse"><path
         style="clip-rule:evenodd"
         id="path218"
         d="M 1.207e-5,0 H 810.00001 V 1011.96 H 1.207e-5 Z" /></clipPath><clipPath
       id="clipPath232"
       clipPathUnits="userSpaceOnUse"><path
         style="clip-rule:evenodd"
         id="path230"
         d="M 1.207e-5,0 H 810.00001 V 1011.96 H 1.207e-5 Z" /></clipPath><clipPath
       id="clipPath244"
       clipPathUnits="userSpaceOnUse"><path
         style="clip-rule:evenodd"
         id="path242"
         d="M 1.207e-5,0 H 810.00001 V 1011.96 H 1.207e-5 Z" /></clipPath><clipPath
       id="clipPath256"
       clipPathUnits="userSpaceOnUse"><path
         style="clip-rule:evenodd"
         id="path254"
         d="M 1.207e-5,0 H 810.00001 V 1011.96 H 1.207e-5 Z" /></clipPath><clipPath
       id="clipPath268"
       clipPathUnits="userSpaceOnUse"><path
         style="clip-rule:evenodd"
         id="path266"
         d="M 1.207e-5,0 H 810.00001 V 1011.96 H 1.207e-5 Z" /></clipPath><clipPath
       id="clipPath280"
       clipPathUnits="userSpaceOnUse"><path
         style="clip-rule:evenodd"
         id="path278"
         d="M 1.207e-5,0 H 810.00001 V 1011.96 H 1.207e-5 Z" /></clipPath><clipPath
       id="clipPath294"
       clipPathUnits="userSpaceOnUse"><path
         style="clip-rule:evenodd"
         id="path292"
         d="M 1.207e-5,0 H 810.00001 V 1011.96 H 1.207e-5 Z" /></clipPath><clipPath
       id="clipPath306"
       clipPathUnits="userSpaceOnUse"><path
         style="clip-rule:evenodd"
         id="path304"
         d="M 1.207e-5,0 H 810.00001 V 1011.96 H 1.207e-5 Z" /></clipPath><clipPath
       id="clipPath318"
       clipPathUnits="userSpaceOnUse"><path
         style="clip-rule:evenodd"
         id="path316"
         d="M 1.207e-5,0 H 810.00001 V 1011.96 H 1.207e-5 Z" /></clipPath><clipPath
       id="clipPath330"
       clipPathUnits="userSpaceOnUse"><path
         style="clip-rule:evenodd"
         id="path328"
         d="M 1.207e-5,0 H 810.00001 V 1011.96 H 1.207e-5 Z" /></clipPath><clipPath
       id="clipPath342"
       clipPathUnits="userSpaceOnUse"><path
         style="clip-rule:evenodd"
         id="path340"
         d="M 1.207e-5,0 H 810.00001 V 1011.96 H 1.207e-5 Z" /></clipPath><clipPath
       id="clipPath354"
       clipPathUnits="userSpaceOnUse"><path
         style="clip-rule:evenodd"
         id="path352"
         d="M 1.207e-5,0 H 810.00001 V 1011.96 H 1.207e-5 Z" /></clipPath><clipPath
       id="clipPath366"
       clipPathUnits="userSpaceOnUse"><path
         style="clip-rule:evenodd"
         id="path364"
         d="M 1.207e-5,0 H 810.00001 V 1011.96 H 1.207e-5 Z" /></clipPath><clipPath
       id="clipPath378"
       clipPathUnits="userSpaceOnUse"><path
         style="clip-rule:evenodd"
         id="path376"
         d="M 1.207e-5,0 H 810.00001 V 1011.96 H 1.207e-5 Z" /></clipPath><clipPath
       id="clipPath390"
       clipPathUnits="userSpaceOnUse"><path
         style="clip-rule:evenodd"
         id="path388"
         d="M 1.207e-5,0 H 810.00001 V 1011.96 H 1.207e-5 Z" /></clipPath><clipPath
       id="clipPath402"
       clipPathUnits="userSpaceOnUse"><path
         style="clip-rule:evenodd"
         id="path400"
         d="M 1.207e-5,0 H 810.00001 V 1011.96 H 1.207e-5 Z" /></clipPath><clipPath
       id="clipPath414"
       clipPathUnits="userSpaceOnUse"><path
         style="clip-rule:evenodd"
         id="path412"
         d="M 1.207e-5,0 H 810.00001 V 1011.96 H 1.207e-5 Z" /></clipPath><clipPath
       id="clipPath426"
       clipPathUnits="userSpaceOnUse"><path
         style="clip-rule:evenodd"
         id="path424"
         d="M 1.207e-5,0 H 810.00001 V 1011.96 H 1.207e-5 Z" /></clipPath><clipPath
       id="clipPath438"
       clipPathUnits="userSpaceOnUse"><path
         style="clip-rule:evenodd"
         id="path436"
         d="M 1.207e-5,0 H 810.00001 V 1011.96 H 1.207e-5 Z" /></clipPath><clipPath
       id="clipPath450"
       clipPathUnits="userSpaceOnUse"><path
         style="clip-rule:evenodd"
         id="path448"
         d="M 1.207e-5,0 H 810.00001 V 1011.96 H 1.207e-5 Z" /></clipPath><clipPath
       id="clipPath462"
       clipPathUnits="userSpaceOnUse"><path
         style="clip-rule:evenodd"
         id="path460"
         d="M 1.207e-5,0 H 810.00001 V 1011.96 H 1.207e-5 Z" /></clipPath><clipPath
       id="clipPath474"
       clipPathUnits="userSpaceOnUse"><path
         style="clip-rule:evenodd"
         id="path472"
         d="M 1.207e-5,0 H 810.00001 V 1011.96 H 1.207e-5 Z" /></clipPath><clipPath
       id="clipPath486"
       clipPathUnits="userSpaceOnUse"><path
         style="clip-rule:evenodd"
         id="path484"
         d="M 1.207e-5,0 H 810.00001 V 1011.96 H 1.207e-5 Z" /></clipPath><clipPath
       id="clipPath498"
       clipPathUnits="userSpaceOnUse"><path
         style="clip-rule:evenodd"
         id="path496"
         d="M 1.207e-5,0 H 810.00001 V 1011.96 H 1.207e-5 Z" /></clipPath><clipPath
       id="clipPath510"
       clipPathUnits="userSpaceOnUse"><path
         style="clip-rule:evenodd"
         id="path508"
         d="M 1.207e-5,0 H 810.00001 V 1011.96 H 1.207e-5 Z" /></clipPath><clipPath
       id="clipPath524"
       clipPathUnits="userSpaceOnUse"><path
         style="clip-rule:evenodd"
         id="path522"
         d="M 1.207e-5,0 H 810.00001 V 1011.96 H 1.207e-5 Z" /></clipPath><clipPath
       id="clipPath536"
       clipPathUnits="userSpaceOnUse"><path
         style="clip-rule:evenodd"
         id="path534"
         d="M 1.207e-5,0 H 810.00001 V 1011.96 H 1.207e-5 Z" /></clipPath><clipPath
       id="clipPath548"
       clipPathUnits="userSpaceOnUse"><path
         style="clip-rule:evenodd"
         id="path546"
         d="M 1.207e-5,0 H 810.00001 V 1011.96 H 1.207e-5 Z" /></clipPath><clipPath
       id="clipPath560"
       clipPathUnits="userSpaceOnUse"><path
         style="clip-rule:evenodd"
         id="path558"
         d="M 1.207e-5,0 H 810.00001 V 1011.96 H 1.207e-5 Z" /></clipPath></defs><g
     transform="matrix(1.3333333,0,0,-1.3333333,0,1349.28)"
     id="g10"><g
       id="g12"><g
         clip-path="url(#clipPath18)"
         id="g14"><path
           id="path20"
           style="fill:#048204;fill-opacity:1;fill-rule:evenodd;stroke:none"
           d="M 0,1.2207e-4 H 810 V 1011.9601 H 0 Z" /></g></g><g
       id="g22"><g
         clip-path="url(#clipPath28)"
         id="g24"><text
   id="text32"
   style="font-variant:normal;font-weight:normal;font-size:30.95999908px;font-family:Helvetica;-inkscape-font-specification:Helvetica;writing-mode:lr-tb;fill:#ffffff;fill-opacity:1;fill-rule:nonzero;stroke:none"
   transform="matrix(1,0,0,-1,50.16,914.81)"><tspan
     id="tspan30"
     y="0"
     x="0 8.6068802 17.21376 39.566879 46.439999 53.313122 60.186241 68.793121 86.006882 103.22064 111.82752 120.55824 146.34792 163.56168 180.68256 190.99223 208.20599 217.12248 225.72935 242.94312 260.15689 268.91855 286.13232 303.2532 318.73318 334.2132 341.08633 358.30008 375.35904 384.33743 401.55121 410.15808 418.85785 427.46472 444.67847 461.89224 470.49911 496.28879 513.50256 530.71631 547.93005 558.23975 575.32965 584.43195 594.74158 611.95538 629.07623 635.94934 661.73901 678.95282 687.55969">I will not mourn the passing of the Maduro regime, </tspan></text>
</g></g><g
       id="g34"><g
         clip-path="url(#clipPath40)"
         id="g36"><text
   id="text44"
   style="font-variant:normal;font-weight:normal;font-size:30.95999908px;font-family:Helvetica;-inkscape-font-specification:Helvetica;writing-mode:lr-tb;fill:#ffffff;fill-opacity:1;fill-rule:nonzero;stroke:none"
   transform="matrix(1,0,0,-1,50.16,871.85)"><tspan
     id="tspan42"
     y="0"
     x="0 17.21376 34.334641 42.941521 51.703201 60.310081 68.916962 91.270081 98.143204 105.01632 111.88944 120.49632 146.34792 163.56168 180.68256 190.99223 208.20599 217.12248 225.72935 242.94312 260.15689 268.91855 286.13232 303.2532 318.73318 334.2132 341.08633 358.30008 375.35904 384.33743 401.55121 410.15808 418.85785 427.46472 444.67847 461.89224 470.49911 480.80881 498.02255 504.89569 522.10944">but I will mourn the passing of the rules</tspan></text>
</g></g><g
       id="g46"><g
         clip-path="url(#clipPath52)"
         id="g48"><text
   id="text56"
   style="font-variant:normal;font-weight:normal;font-size:30.95999908px;font-family:Helvetica;-inkscape-font-specification:Helvetica;writing-mode:lr-tb;fill:#ffffff;fill-opacity:1;fill-rule:nonzero;stroke:none"
   transform="matrix(1,0,0,-1,587.95,871.85)"><tspan
     id="tspan54"
     y="0"
     x="0">-</tspan></text>
</g></g><g
       id="g58"><g
         clip-path="url(#clipPath64)"
         id="g60"><text
   id="text68"
   style="font-variant:normal;font-weight:normal;font-size:30.95999908px;font-family:Helvetica;-inkscape-font-specification:Helvetica;writing-mode:lr-tb;fill:#ffffff;fill-opacity:1;fill-rule:nonzero;stroke:none"
   transform="matrix(1,0,0,-1,598.27,871.85)"><tspan
     id="tspan66"
     y="0"
     x="0 17.21376 34.334641 49.81464 67.028397 84.242157">based </tspan></text>
</g></g><g
       id="g70"><g
         clip-path="url(#clipPath76)"
         id="g72"><text
   id="text80"
   style="font-variant:normal;font-weight:normal;font-size:30.95999908px;font-family:Helvetica;-inkscape-font-specification:Helvetica;writing-mode:lr-tb;fill:#ffffff;fill-opacity:1;fill-rule:nonzero;stroke:none"
   transform="matrix(1,0,0,-1,50.16,828.89)"><tspan
     id="tspan78"
     y="0"
     x="0 6.8731198 24.08688 32.69376 49.81464 60.124321 77.338081 94.458961 103.06584 109.93896 127.15272 144.36649 161.58025 168.45335 177.58656 194.80032 205.11 222.23088 239.44464 248.02055">international order.</tspan></text>
</g></g><g
       id="g82"><g
         clip-path="url(#clipPath88)"
         id="g84"><text
   id="text92"
   style="font-variant:normal;font-weight:bold;font-size:32.04000092px;font-family:Arial;-inkscape-font-specification:Arial-BoldMT;writing-mode:lr-tb;fill:#ffffff;fill-opacity:1;fill-rule:nonzero;stroke:none"
   transform="matrix(1,0,0,-1,28.536,776.28)"><tspan
     id="tspan90"
     y="0"
     x="0">-</tspan></text>
</g></g><g
       id="g94"><g
         clip-path="url(#clipPath100)"
         id="g96"><text
   id="text104"
   style="font-variant:normal;font-weight:bold;font-size:32.04000092px;font-family:Arial;-inkscape-font-specification:Arial-BoldMT;writing-mode:lr-tb;fill:#ffffff;fill-opacity:1;fill-rule:nonzero;stroke:none"
   transform="matrix(1,0,0,-1,47.976,776.28)"><tspan
     id="tspan102"
     y="0"
     x="0 21.37068 40.947121 65.874237 83.688477 96.152039 115.72848 124.6356 151.32492 170.90137 183.36491 201.17915 210.08627 218.99339 238.56984 247.31676 257.98608 277.56253 286.46964 306.04608 323.86032 336.32388 354.13812 363.04523 371.72809 394.86096 412.6752 441.15875 460.7352 478.54944 491.013 508.82724 519.49658">Edward Morello (Liberal Democrat)</tspan></text>
</g></g><g
       id="g106"
       transform="translate(-57.978268,-1.9992506)"><g
         clip-path="url(#clipPath112)"
         id="g108"><text
   id="text116"
   style="font-variant:normal;font-weight:normal;font-size:26.064px;font-family:Helvetica;-inkscape-font-specification:Helvetica;writing-mode:lr-tb;fill:#ffffff;fill-opacity:1;fill-rule:nonzero;stroke:none"
   transform="matrix(1,0,0,-1,107.9,741.41)"><tspan
     sodipodi:role="line"
     id="tspan1">5th January, House of  Commons</tspan></text>
</g></g><g
       id="g130"><g
         clip-path="url(#clipPath136)"
         id="g132"><text
   id="text140"
   style="font-variant:normal;font-weight:bold;font-size:23.04000092px;font-family:Arial;-inkscape-font-specification:Arial-BoldMT;writing-mode:lr-tb;fill:#ffffff;fill-opacity:1;fill-rule:nonzero;stroke:none"
   transform="matrix(1,0,0,-1,16.68,24.072)"><tspan
     id="tspan138"
     y="0"
     x="0 15.36768 28.177919 37.14048 43.545601 49.950722 62.76096 83.243523 96.053757 110.1312 117.80352 123.84 139.20769 145.61279 166.09537 180.17281 186.48576 199.29601">Parliament Simple </tspan></text>
</g></g><g
       id="g142"><g
         clip-path="url(#clipPath148)"
         id="g144"><text
   id="text152"
   style="font-variant:normal;font-weight:normal;font-size:23.04000092px;font-family:Helvetica;-inkscape-font-specification:Helvetica;writing-mode:lr-tb;fill:#ffffff;fill-opacity:1;fill-rule:nonzero;stroke:none"
   transform="matrix(1,0,0,-1,222.38,24.072)"><tspan
     id="tspan150"
     y="0"
     x="0 12.81024 25.62048 33.292801 38.49984 43.614719 56.424961 75.617279 88.289284 101.00736 107.41248 113.72544 118.84032 124.02432 129.13921 141.94943 154.62144 161.02657 173.69856 180.10368 199.29601">parliament.lilpete.me</tspan></text>
</g></g><g
       id="g154"><g
         clip-path="url(#clipPath160)"
         id="g156"><text
   id="text164"
   style="font-variant:normal;font-weight:bold;font-size:23.04000092px;font-family:Arial;-inkscape-font-specification:Arial-BoldMT;writing-mode:lr-tb;fill:#ffffff;fill-opacity:1;fill-rule:nonzero;stroke:none"
   transform="matrix(1,0,0,-1,463.03,24.072)"><tspan
     id="tspan162"
     y="0"
     x="0 16.63488 30.71232 44.674561 62.922241 68.912643 76.584961 90.662399 103.47264 109.71648 123.79392 136.60416 150.68159 163.49184 171.16415 183.88223 196.60033 203.00545 216.99072 224.66304 230.67648 244.75392 258.76224 267.72479 273.99167 281.664 288.06912 308.55167 321.36191">Know the debates of our time.</tspan></text>
</g></g><g
       id="g166"><g
         clip-path="url(#clipPath172)"
         id="g168"><path
           id="path174"
           style="fill:none;stroke:#ffffff;stroke-width:6;stroke-linecap:butt;stroke-linejoin:round;stroke-miterlimit:10;stroke-dasharray:18, 6;stroke-dashoffset:0;stroke-opacity:1"
           d="M 867.48,58.68 H 16.68" /></g></g><path
       id="path176"
       style="fill:none;stroke:#ffffff;stroke-width:9;stroke-linecap:butt;stroke-linejoin:round;stroke-miterlimit:10;stroke-dasharray:none;stroke-opacity:1"
       d="M 32.94,942.54 V 823.02" /><g
       id="g178"><g
         clip-path="url(#clipPath184)"
         id="g180"><text
   id="text188"
   style="font-variant:normal;font-weight:normal;font-size:30.98399925px;font-family:Helvetica;-inkscape-font-specification:Helvetica;writing-mode:lr-tb;fill:#ffffff;fill-opacity:1;fill-rule:nonzero;stroke:none"
   transform="matrix(1,0,0,-1,53.16,665.57)"><tspan
     id="tspan186"
     y="0"
     x="0 20.666328 36.158329 44.771881 53.385433 70.612534 87.715706 96.453194 117.11952 127.43719 134.31564 160.12531 177.22849 186.0899 211.89958 218.77803 235.8812 242.75964 258.25165 266.8652 284.09229 294.40997 303.30237 313.62006 330.84714 346.33914 363.41135 380.63843 387.42395 404.65103 421.75421 430.95645 448.18356 465.28674 474.02423 494.69055 511.82471 529.05182 546.15497 563.38208 576.51929 585.13281 594.11823 611.34528 628.44849 637.18597 654.41309 671.51624 687.00824">As the Prime Minister revealed on Sunday, he has </tspan></text>
</g></g><g
       id="g190"><g
         clip-path="url(#clipPath196)"
         id="g192"><text
   id="text200"
   style="font-variant:normal;font-weight:normal;font-size:30.95999908px;font-family:Helvetica;-inkscape-font-specification:Helvetica;writing-mode:lr-tb;fill:#ffffff;fill-opacity:1;fill-rule:nonzero;stroke:none"
   transform="matrix(1,0,0,-1,53.16,622.58)"><tspan
     id="tspan198"
     y="0"
     x="0 17.21376 34.334641 42.941521 51.703201 68.916962 84.396957 101.51784 118.7316 127.64808 143.12808 160.34184 177.46272 192.94272 210.15648 227.27736 236.25575 244.86264 262.07639 270.68329 279.29016 296.50391 313.71768 320.74561 341.39594 367.18561 384.39935 394.70905 401.58215 417.06216 434.15207 451.36584 460.40616 481.05649 491.36615 508.57993 524.05994 530.93304 547.992 565.20575 582.32666 590.93353 599.54041 608.58075 630.93384 648.14758 665.20654 680.68658">not even spoken to the American President. Does </tspan></text>
</g></g><g
       id="g202"><g
         clip-path="url(#clipPath208)"
         id="g204"><text
   id="text212"
   style="font-variant:normal;font-weight:normal;font-size:30.95999908px;font-family:Helvetica;-inkscape-font-specification:Helvetica;writing-mode:lr-tb;fill:#ffffff;fill-opacity:1;fill-rule:nonzero;stroke:none"
   transform="matrix(1,0,0,-1,53.16,579.62)"><tspan
     id="tspan210"
     y="0"
     x="0 8.6068802 25.820641 32.69376 48.173759 56.84256 74.05632 91.1772 99.784081 108.54576 118.85544 136.0692 151.54919 168.67007 185.88383 192.75696 201.64249 210.24936 227.46312 244.67688 253.43855 268.91855 275.79169 301.58136 318.7951 325.5444 342.75815 351.55081 360.15768 370.46735 387.68112 396.28799 413.50177 422.32535 430.93225 448.146 465.35977 473.96664 482.66641 491.27328 508.48703 525.70081 532.69775 553.34808 579.13776 596.3515 606.66119 613.5343 629.01434 646.10425 663.31799 678.79797 687.83832 705.05206 711.92517 728.98413">this not reveal the simple truth that the Americans did </tspan></text>
</g></g><g
       id="g214"><g
         clip-path="url(#clipPath220)"
         id="g216"><text
   id="text224"
   style="font-variant:normal;font-weight:normal;font-size:30.95999908px;font-family:Helvetica;-inkscape-font-specification:Helvetica;writing-mode:lr-tb;fill:#ffffff;fill-opacity:1;fill-rule:nonzero;stroke:none"
   transform="matrix(1,0,0,-1,53.16,536.54)"><tspan
     id="tspan222"
     y="0"
     x="0 8.6068802 25.820641 32.69376 48.173759 56.84256 79.195679 86.068802 94.675682 111.88944 128.94839 146.16216 154.76904 163.71648 180.93024 196.41023 205.01712 222.23088 239.3208 254.8008 272.01456 289.13544 304.61545 321.82919 330.86951 339.47641 356.69016 373.90393 389.38391 398.1456 415.35938 432.48026 441.21097 458.42471 475.54559 484.15247 492.91415 510.12793 517.00104 532.48102 549.53998 558.39453 575.60834 584.2771 601.49091 618.61176 644.40143 661.61517">this without us because they do not give a damn </tspan></text>
</g></g><g
       id="g226"><g
         clip-path="url(#clipPath232)"
         id="g228"><text
   id="text236"
   style="font-variant:normal;font-weight:normal;font-size:30.98399925px;font-family:Helvetica;-inkscape-font-specification:Helvetica;writing-mode:lr-tb;fill:#ffffff;fill-opacity:1;fill-rule:nonzero;stroke:none"
   transform="matrix(1,0,0,-1,53.16,493.58)"><tspan
     id="tspan234"
     y="0"
     x="0 22.370447 39.473618 56.700722 65.31427 74.113731 82.72728 99.954384 106.83283 122.32483 130.93839 153.30884 170.53593 187.6391 203.1311 220.35822 229.12668 237.74023 254.96733 261.84579 278.91797 294.40997 309.90198">what this House thinks?</tspan></text>
</g></g><g
       id="g238"><g
         clip-path="url(#clipPath244)"
         id="g240"><text
   id="text248"
   style="font-variant:normal;font-weight:bold;font-size:32.04000092px;font-family:Arial;-inkscape-font-specification:Arial-BoldMT;writing-mode:lr-tb;fill:#ffffff;fill-opacity:1;fill-rule:nonzero;stroke:none"
   transform="matrix(1,0,0,-1,32.856,439.3)"><tspan
     id="tspan246"
     y="0"
     x="0">-</tspan></text>
</g></g><g
       id="g250"><g
         clip-path="url(#clipPath256)"
         id="g252"><text
   id="text260"
   style="font-variant:normal;font-weight:bold;font-size:32.04000092px;font-family:Arial;-inkscape-font-specification:Arial-BoldMT;writing-mode:lr-tb;fill:#ffffff;fill-opacity:1;fill-rule:nonzero;stroke:none"
   transform="matrix(1,0,0,-1,52.296,439.3)"><tspan
     id="tspan258"
     y="0"
     x="0 17.173441 36.749882 65.233437 74.140556 91.314003 110.89044 130.46687 148.28111 167.85756 187.43401 207.01044 224.82468 235.494 244.04868 254.718 277.85089 297.42731 317.06784 334.88208 352.69632 365.15988 382.97412 400.78836 411.45767 420.36481 438.17905 455.89716">Tom Tugendhat (Conservative)</tspan></text>
</g></g><g
       id="g262"
       transform="translate(-57.978268)"><g
         clip-path="url(#clipPath268)"
         id="g264"><text
   id="text272"
   style="font-variant:normal;font-weight:normal;font-size:26.04px;font-family:Helvetica;-inkscape-font-specification:Helvetica;writing-mode:lr-tb;fill:#ffffff;fill-opacity:1;fill-rule:nonzero;stroke:none"
   transform="matrix(1,0,0,-1,112.22,404.4)"><tspan
     sodipodi:role="line"
     id="tspan2">5th January, House of Commons</tspan></text>
</g></g><path
       id="path286"
       style="fill:none;stroke:#ffffff;stroke-width:9;stroke-linecap:butt;stroke-linejoin:round;stroke-miterlimit:10;stroke-dasharray:none;stroke-opacity:1"
       d="M 36.66,693.3 V 485.82" /><g
       id="g288"><g
         clip-path="url(#clipPath294)"
         id="g290"><text
   id="text298"
   style="font-variant:normal;font-weight:normal;font-size:30.95999908px;font-family:Helvetica;-inkscape-font-specification:Helvetica;writing-mode:lr-tb;fill:#ffffff;fill-opacity:1;fill-rule:nonzero;stroke:none"
   transform="matrix(1,0,0,-1,53.16,330.86)"><tspan
     id="tspan296"
     y="0"
     x="0 24.08688 30.959999">Oil</tspan></text>
</g></g><g
       id="g300"><g
         clip-path="url(#clipPath306)"
         id="g302"><text
   id="text310"
   style="font-variant:normal;font-weight:normal;font-size:30.95999908px;font-family:Helvetica;-inkscape-font-specification:Helvetica;writing-mode:lr-tb;fill:#ffffff;fill-opacity:1;fill-rule:nonzero;stroke:none"
   transform="matrix(1,0,0,-1,105.48,330.86)"><tspan
     id="tspan308"
     y="0"
     x="0 15.48 32.69376 58.638241 75.851997 93.065758 110.27952 117.15264 134.36639">companies</tspan></text>
</g></g><g
       id="g312"><g
         clip-path="url(#clipPath318)"
         id="g314"><text
   id="text322"
   style="font-variant:normal;font-weight:normal;font-size:30.95999908px;font-family:Helvetica;-inkscape-font-specification:Helvetica;writing-mode:lr-tb;fill:#ffffff;fill-opacity:1;fill-rule:nonzero;stroke:none"
   transform="matrix(1,0,0,-1,270.02,330.86)"><tspan
     id="tspan320"
     y="0"
     x="0 17.21376 27.523439">are</tspan></text>
</g></g><g
       id="g324"><g
         clip-path="url(#clipPath330)"
         id="g326"><text
   id="text334"
   style="font-variant:normal;font-weight:normal;font-size:30.95999908px;font-family:Helvetica;-inkscape-font-specification:Helvetica;writing-mode:lr-tb;fill:#ffffff;fill-opacity:1;fill-rule:nonzero;stroke:none"
   transform="matrix(1,0,0,-1,329.33,330.86)"><tspan
     id="tspan332"
     y="0"
     x="0 17.21376 34.427521">not</tspan></text>
</g></g><g
       id="g336"><g
         clip-path="url(#clipPath342)"
         id="g338"><text
   id="text346"
   style="font-variant:normal;font-weight:normal;font-size:30.95999908px;font-family:Helvetica;-inkscape-font-specification:Helvetica;writing-mode:lr-tb;fill:#ffffff;fill-opacity:1;fill-rule:nonzero;stroke:none"
   transform="matrix(1,0,0,-1,387.05,330.86)"><tspan
     id="tspan344"
     y="0"
     x="0 15.48 24.08688 41.30064 49.90752">state</tspan></text>
</g></g><g
       id="g348"><g
         clip-path="url(#clipPath354)"
         id="g350"><text
   id="text358"
   style="font-variant:normal;font-weight:normal;font-size:30.95999908px;font-family:Helvetica;-inkscape-font-specification:Helvetica;writing-mode:lr-tb;fill:#ffffff;fill-opacity:1;fill-rule:nonzero;stroke:none"
   transform="matrix(1,0,0,-1,468.79,330.86)"><tspan
     id="tspan356"
     y="0"
     x="0 17.21376 34.520401 41.39352 48.26664 65.4804 82.69416 93.003838 108.48384">builders,</tspan></text>
</g></g><g
       id="g360"><g
         clip-path="url(#clipPath366)"
         id="g362"><text
   id="text370"
   style="font-variant:normal;font-weight:normal;font-size:30.95999908px;font-family:Helvetica;-inkscape-font-specification:Helvetica;writing-mode:lr-tb;fill:#ffffff;fill-opacity:1;fill-rule:nonzero;stroke:none"
   transform="matrix(1,0,0,-1,600.55,330.86)"><tspan
     id="tspan368"
     y="0"
     x="0 17.21376 34.427521">nor</tspan></text>
</g></g><g
       id="g372"><g
         clip-path="url(#clipPath378)"
         id="g374"><text
   id="text382"
   style="font-variant:normal;font-weight:normal;font-size:30.95999908px;font-family:Helvetica;-inkscape-font-specification:Helvetica;writing-mode:lr-tb;fill:#ffffff;fill-opacity:1;fill-rule:nonzero;stroke:none"
   transform="matrix(1,0,0,-1,659.98,330.86)"><tspan
     id="tspan380"
     y="0"
     x="0 17.21376 27.523439">are</tspan></text>
</g></g><g
       id="g384"><g
         clip-path="url(#clipPath390)"
         id="g386"><text
   id="text394"
   style="font-variant:normal;font-weight:normal;font-size:30.95999908px;font-family:Helvetica;-inkscape-font-specification:Helvetica;writing-mode:lr-tb;fill:#ffffff;fill-opacity:1;fill-rule:nonzero;stroke:none"
   transform="matrix(1,0,0,-1,719.26,330.86)"><tspan
     id="tspan392"
     y="0"
     x="0 8.6068802 25.820641 43.034401">they</tspan></text>
</g></g><g
       id="g396"><g
         clip-path="url(#clipPath402)"
         id="g398"><text
   id="text406"
   style="font-variant:normal;font-weight:normal;font-size:30.95999908px;font-family:Helvetica;-inkscape-font-specification:Helvetica;writing-mode:lr-tb;fill:#ffffff;fill-opacity:1;fill-rule:nonzero;stroke:none"
   transform="matrix(1,0,0,-1,53.16,287.9)"><tspan
     id="tspan404"
     y="0"
     x="0 15.48 32.69376 49.90752 67.121277 84.335037 91.301041">capable</tspan></text>
</g></g><g
       id="g408"><g
         clip-path="url(#clipPath414)"
         id="g410"><text
   id="text418"
   style="font-variant:normal;font-weight:normal;font-size:30.95999908px;font-family:Helvetica;-inkscape-font-specification:Helvetica;writing-mode:lr-tb;fill:#ffffff;fill-opacity:1;fill-rule:nonzero;stroke:none"
   transform="matrix(1,0,0,-1,173.9,287.9)"><tspan
     id="tspan416"
     y="0"
     x="0 17.15996">of</tspan></text>
</g></g><g
       id="g420"><g
         clip-path="url(#clipPath426)"
         id="g422"><text
   id="text430"
   style="font-variant:normal;font-weight:normal;font-size:30.95999908px;font-family:Helvetica;-inkscape-font-specification:Helvetica;writing-mode:lr-tb;fill:#ffffff;fill-opacity:1;fill-rule:nonzero;stroke:none"
   transform="matrix(1,0,0,-1,211.94,287.9)"><tspan
     id="tspan428"
     y="0"
     x="0 17.21376 34.427521 60.341042 77.554802 93.034798 103.34448 120.55824 129.31992 136.19304">democratic</tspan></text>
</g></g><g
       id="g432"><g
         clip-path="url(#clipPath438)"
         id="g434"><text
   id="text442"
   style="font-variant:normal;font-weight:normal;font-size:30.95999908px;font-family:Helvetica;-inkscape-font-specification:Helvetica;writing-mode:lr-tb;fill:#ffffff;fill-opacity:1;fill-rule:nonzero;stroke:none"
   transform="matrix(1,0,0,-1,375.77,287.9)"><tspan
     id="tspan440"
     y="0"
     x="0 15.57288 32.78664 50.000401 67.214157 82.69416 89.567284 98.174156">capacity</tspan></text>
</g></g><g
       id="g444"><g
         clip-path="url(#clipPath450)"
         id="g446"><text
   id="text454"
   style="font-variant:normal;font-weight:normal;font-size:30.95999908px;font-family:Helvetica;-inkscape-font-specification:Helvetica;writing-mode:lr-tb;fill:#ffffff;fill-opacity:1;fill-rule:nonzero;stroke:none"
   transform="matrix(1,0,0,-1,501.79,287.9)"><tspan
     id="tspan452"
     y="0"
     x="0 17.21376 34.427521 41.30064 48.173759 65.38752 72.322563 89.536324">building</tspan></text>
</g></g><g
       id="g456"><g
         clip-path="url(#clipPath462)"
         id="g458"><text
   id="text466"
   style="font-variant:normal;font-weight:normal;font-size:30.95999908px;font-family:Helvetica;-inkscape-font-specification:Helvetica;writing-mode:lr-tb;fill:#ffffff;fill-opacity:1;fill-rule:nonzero;stroke:none"
   transform="matrix(1,0,0,-1,620.83,287.9)"><tspan
     id="tspan464"
     y="0"
     x="0 17.303961">or</tspan></text>
</g></g><g
       id="g468"><g
         clip-path="url(#clipPath474)"
         id="g470"><text
   id="text478"
   style="font-variant:normal;font-weight:normal;font-size:30.95999908px;font-family:Helvetica;-inkscape-font-specification:Helvetica;writing-mode:lr-tb;fill:#ffffff;fill-opacity:1;fill-rule:nonzero;stroke:none"
   transform="matrix(1,0,0,-1,660.58,287.9)"><tspan
     id="tspan476"
     y="0"
     x="0 17.21376 34.520401 51.734161 68.947922 75.821037 82.69416 100.0008">enabling</tspan></text>
</g></g><g
       id="g480"><g
         clip-path="url(#clipPath486)"
         id="g482"><text
   id="text490"
   style="font-variant:normal;font-weight:normal;font-size:30.95999908px;font-family:Helvetica;-inkscape-font-specification:Helvetica;writing-mode:lr-tb;fill:#ffffff;fill-opacity:1;fill-rule:nonzero;stroke:none"
   transform="matrix(1,0,0,-1,53.16,244.92)"><tspan
     id="tspan488"
     y="0"
     x="0 17.21376 34.334641 41.20776 48.080879 56.687759 63.560879 79.040878 96.130798">political</tspan></text>
</g></g><g
       id="g492"><g
         clip-path="url(#clipPath498)"
         id="g494"><text
   id="text502"
   style="font-variant:normal;font-weight:normal;font-size:30.95999908px;font-family:Helvetica;-inkscape-font-specification:Helvetica;writing-mode:lr-tb;fill:#ffffff;fill-opacity:1;fill-rule:nonzero;stroke:none"
   transform="matrix(1,0,0,-1,165.14,244.92)"><tspan
     id="tspan500"
     y="0"
     x="0 8.6068802 18.916559 36.130322 53.344082 68.824081 75.604317 84.211197 91.08432 108.29808 125.41896">transitions</tspan></text>
</g></g><g
       id="g504"><g
         clip-path="url(#clipPath510)"
         id="g506"><text
   id="text514"
   style="font-variant:normal;font-weight:normal;font-size:30.95999908px;font-family:Helvetica;-inkscape-font-specification:Helvetica;writing-mode:lr-tb;fill:#ffffff;fill-opacity:1;fill-rule:nonzero;stroke:none"
   transform="matrix(1,0,0,-1,306.05,244.92)"><tspan
     id="tspan512"
     y="0"
     x="0">.</tspan></text>
</g></g><path
       id="path516"
       style="fill:none;stroke:#ffffff;stroke-width:9;stroke-linecap:butt;stroke-linejoin:round;stroke-miterlimit:10;stroke-dasharray:none;stroke-opacity:1"
       d="M 36.66,357.42 V 237.9" /><g
       id="g518"><g
         clip-path="url(#clipPath524)"
         id="g520"><text
   id="text528"
   style="font-variant:normal;font-weight:bold;font-size:32.04000092px;font-family:Arial;-inkscape-font-specification:Arial-BoldMT;writing-mode:lr-tb;fill:#ffffff;fill-opacity:1;fill-rule:nonzero;stroke:none"
   transform="matrix(1,0,0,-1,28.728,192.36)"><tspan
     id="tspan526"
     y="0"
     x="0">-</tspan></text>
</g></g><g
       id="g530"><g
         clip-path="url(#clipPath536)"
         id="g532"><text
   id="text540"
   style="font-variant:normal;font-weight:bold;font-size:32.04000092px;font-family:Arial;-inkscape-font-specification:Arial-BoldMT;writing-mode:lr-tb;fill:#ffffff;fill-opacity:1;fill-rule:nonzero;stroke:none"
   transform="matrix(1,0,0,-1,47.088,192.36)"><tspan
     id="tspan538"
     y="0"
     x="0 23.132879 32.040001 40.947121 58.76136 67.572357 85.386597 94.101479 117.23436 135.0486 152.86284 165.3264 184.90285 202.58891 211.33585 222.00516 245.13805 264.71448 284.29092 302.10516 319.82327 332.28683 350.10107 367.91531 378.58463 387.39563 405.20987 422.92801">Alicia Kearns (Conservative)</tspan></text>
</g></g><g
       id="g542"
       transform="translate(-65.975271,1.9992506)"><g
         clip-path="url(#clipPath548)"
         id="g544"><text
   id="text552"
   style="font-variant:normal;font-weight:normal;font-size:26.04px;font-family:Helvetica;-inkscape-font-specification:Helvetica;writing-mode:lr-tb;fill:#ffffff;fill-opacity:1;fill-rule:nonzero;stroke:none"
   transform="matrix(1,0,0,-1,108.07,157.46)"><tspan
     sodipodi:role="line"
     id="tspan3">5th January, House of Commons</tspan></text>
</g></g></g></svg>
